<?xml version="1.0" encoding="UTF-8" standalone="no"?>
<!-- Created with Inkscape (http://www.inkscape.org/) -->

<svg
   width="256"
   height="256"
   viewBox="0 0 256 256"
   version="1.1"
   id="svg5"
   inkscape:version="1.1.2 (0a00cf5339, 2022-02-04, custom)"
   sodipodi:docname="icon.svg"
   inkscape:export-filename="../../icon.png"
   inkscape:export-xdpi="96"
   inkscape:export-ydpi="96"
   xmlns:inkscape="http://www.inkscape.org/namespaces/inkscape"
   xmlns:sodipodi="http://sodipodi.sourceforge.net/DTD/sodipodi-0.dtd"
   xmlns="http://www.w3.org/2000/svg"
   xmlns:svg="http://www.w3.org/2000/svg"
   xmlns:rdf="http://www.w3.org/1999/02/22-rdf-syntax-ns#"
   xmlns:cc="http://creativecommons.org/ns#">
  <sodipodi:namedview
     id="namedview7"
     pagecolor="#ffffff"
     bordercolor="#666666"
     borderopacity="1.0"
     inkscape:pageshadow="2"
     inkscape:pageopacity="0"
     inkscape:pagecheckerboard="true"
     inkscape:document-units="px"
     showgrid="false"
     units="px"
     width="1920px"
     inkscape:showpageshadow="true"
     inkscape:zoom="2"
     inkscape:cx="188.25"
     inkscape:cy="149"
     inkscape:window-width="1920"
     inkscape:window-height="1024"
     inkscape:window-x="0"
     inkscape:window-y="28"
     inkscape:window-maximized="1"
     inkscape:current-layer="layer1"
     inkscape:snap-nodes="false" />
  <defs
     id="defs2" />
  <g
     inkscape:label="图层 1"
     inkscape:groupmode="layer"
     id="layer1">
    <circle
       style="fill:#ffffff;fill-opacity:1;stroke:#030303;stroke-width:8;stroke-linecap:round;stroke-linejoin:round;stroke-miterlimit:0;stroke-dasharray:none;paint-order:normal;stop-color:#000000"
       id="circle3410"
       cx="192.20168"
       cy="215.53328"
       r="11.503805" />
    <circle
       style="fill:#ffffff;fill-opacity:1;stroke:#030303;stroke-width:8;stroke-linecap:round;stroke-linejoin:round;stroke-miterlimit:0;stroke-dasharray:none;paint-order:normal;stop-color:#000000"
       id="path3328"
       cx="65.147446"
       cy="215.53328"
       r="11.503805" />
    <path
       style="fill:none;stroke:#000000;stroke-width:10;stroke-linecap:round;stroke-linejoin:miter;stroke-opacity:1;stroke-miterlimit:4;stroke-dasharray:none"
       d="M 60.821948,35.611207 134.3515,78.806561 180.52809,17.843222"
       id="path3098" />
    <rect
       style="fill:#ffffff;fill-opacity:1;stroke:#030303;stroke-width:8;stroke-linecap:square;stroke-linejoin:round;stroke-miterlimit:0;paint-order:normal;stop-color:#000000;stroke-dasharray:none"
       id="rect2935"
       width="203.50662"
       height="143.16214"
       x="25.581589"
       y="70.527855" />
    <rect
       style="fill:#478cbf;fill-opacity:1;stroke:#030303;stroke-width:8;stroke-linecap:square;stroke-linejoin:round;stroke-miterlimit:0;paint-order:normal;stop-color:#000000;stroke-dasharray:none"
       id="rect3061"
       width="160.82495"
       height="105.64741"
       x="47.703865"
       y="88.954483"
       inkscape:export-filename="icon.png"
       inkscape:export-xdpi="96"
       inkscape:export-ydpi="96" />
    <g
       id="g5463"
       transform="matrix(1.8632442,0,0,1.8632442,332.98878,-75.969144)">
      <path
         d="m -69.818966,121.27778 c 0,0 -0.133321,-0.81798 -0.211263,-0.81059 l -14.84258,1.43207 c -1.181024,0.11404 -2.098276,1.05591 -2.18114,2.23939 l -0.407759,5.84441 -11.482878,0.81921 -0.781059,-5.29676 c -0.173933,-1.17815 -1.202765,-2.06628 -2.393635,-2.06628 h -15.66548 c -1.19046,0 -2.21929,0.88813 -2.39322,2.06628 l -0.78147,5.29676 -11.48288,-0.81921 -0.40776,-5.84441 c -0.0829,-1.18389 -1.00012,-2.12576 -2.18114,-2.2398 l -14.84996,-1.43166 c -0.0767,-0.007 -0.13291,0.81141 -0.20963,0.81141 l -0.0201,3.21202 12.57653,2.02813 0.41186,5.8965 c 0.0833,1.19374 1.04647,2.15899 2.24103,2.24473 l 15.81439,1.1281 c 0.0599,0.004 0.11897,0.007 0.17804,0.007 1.18841,0 2.2156,-0.88854 2.38953,-2.06669 l 0.80362,-5.45019 h 11.48821 l 0.80362,5.45019 c 0.17353,1.17774 1.20195,2.06628 2.392,2.06628 0.0583,0 0.1165,-0.002 0.17352,-0.006 l 15.816441,-1.1281 c 1.19415,-0.0857 2.157757,-1.05099 2.241031,-2.24473 l 0.411451,-5.8965 12.571192,-2.03715 z"
         fill="#ffffff"
         stroke-width="0.131398"
         id="path836" />
      <g
         fill="#ffffff"
         stroke-width="0.32031"
         id="g848"
         transform="translate(-159.95197,-966.92222)">
        <path
           d="m 0,0 c 0,-12.052 -9.765,-21.815 -21.813,-21.815 -12.042,0 -21.81,9.763 -21.81,21.815 0,12.044 9.768,21.802 21.81,21.802 C -9.765,21.802 0,12.044 0,0"
           transform="matrix(0.41022,0,0,-0.41022,37.9,1073.8)"
           id="path842" />
        <path
           d="m 0,0 c -3.878,0 -7.021,2.858 -7.021,6.381 v 20.081 c 0,3.52 3.143,6.381 7.021,6.381 3.878,0 7.028,-2.861 7.028,-6.381 V 6.381 C 7.028,2.858 3.878,0 0,0"
           transform="matrix(0.41022,0,0,-0.41022,50,1083.6)"
           id="path844" />
        <path
           d="m 0,0 c 0,-12.052 9.765,-21.815 21.815,-21.815 12.041,0 21.808,9.763 21.808,21.815 0,12.044 -9.767,21.802 -21.808,21.802 C 9.765,21.802 0,12.044 0,0"
           transform="matrix(0.41022,0,0,-0.41022,62.101,1073.8)"
           id="path846" />
      </g>
      <path
         d="m -130.14497,101.47778 c -3.2801,0 -5.9395,2.6601 -5.9395,5.9394 0,3.2794 2.6594,5.9371 5.9395,5.9371 3.2818,0 5.9397,-2.6577 5.9397,-5.9371 0,-3.2793 -2.6579,-5.9394 -5.9397,-5.9394 z m 40.383004,0 c -3.2793,0 -5.9362,2.6601 -5.9362,5.9394 0,3.2794 2.6569,5.9371 5.9362,5.9371 3.2826,0 5.9396,-2.6577 5.9396,-5.9371 0,-3.2793 -2.6571,-5.9394 -5.9396,-5.9394 z"
         fill="#414042"
         id="path850" />
    </g>
  </g>
  <metadata
     id="metadata821">
    <rdf:RDF>
      <cc:Work
         rdf:about="" />
    </rdf:RDF>
  </metadata>
  <style
     type="text/css"
     id="style822">
	.st0{fill:#07A3D7;}
</style>
</svg>
