<svg fill="none" height="332" viewBox="0 0 482 332" width="482" xmlns="http://www.w3.org/2000/svg" xmlns:xlink="http://www.w3.org/1999/xlink"><filter id="a" color-interpolation-filters="sRGB" filterUnits="userSpaceOnUse" height="330" width="480" x="1" y="1"><feFlood flood-opacity="0" result="BackgroundImageFix"/><feColorMatrix in="SourceAlpha" type="matrix" values="0 0 0 0 0 0 0 0 0 0 0 0 0 0 0 0 0 0 127 0"/><feOffset dx="0" dy="0"/><feGaussianBlur stdDeviation="20"/><feColorMatrix type="matrix" values="0 0 0 0 0 0 0 0 0 0 0 0 0 0 0 0 0 0 0.25 0"/><feBlend in2="BackgroundImageFix" mode="normal" result="effect1_dropShadow"/><feBlend in="SourceGraphic" in2="effect1_dropShadow" mode="normal" result="shape"/></filter><g filter="url(#a)"><rect fill="#fff" height="250" rx="5" width="400" x="41" y="41"/><rect fill="none" height="251" rx="5.5" stroke="#d3d7de" width="401" x="40.5" y="40.5"/></g><path d="m2.55469 8.36167c.89648.84961 2.12109 2.07423 2.70117 2.77733l.94922-1.0195c-.60938-.68556-1.85156-1.81642-2.75391-2.6133zm8.63671-1.18945c-.0352 6.26948.0586 12.68558-4.49999 15.93168.36328.2168.79687.6386 1.03125.9492 2.40824-1.7754 3.61524-4.4121 4.20704-7.4531.6855 2.5839 1.9629 5.6777 4.5 7.4355.2344-.3457.6328-.75.9902-1.0078-3.9375-2.584-4.7695-8.3906-5.0039-10.1426.1289-1.8574.1289-3.80273.1465-5.71288zm-10.34765 5.80078v1.3008h3.02344v6.2812c0 .8789-.60938 1.5059-.99024 1.7578.25196.2403.63282.7149.75586 1.0079.25196-.3457.73828-.7325 4.17774-3.1875-.12891-.2754-.30469-.7852-.39844-1.1543l-2.23242 1.5234v-7.5293zm18.99025-4.60547c.9726.84375 2.1972 2.05077 2.789 2.84767l.9375-.9844c-.5976-.76757-1.8574-1.89843-2.8476-2.65428zm4.5 13.60547v1.2656h10.9805v-1.2656h-4.2833v-6h3.5626v-1.2773h-3.5626v-4.95708h3.8848v-1.26562h-9.9726v1.26562h4.6992v12.23438h-2.4258v-8.8066h-1.3359v8.8066zm-5.4375-9v1.3008h2.5371v6.3047c0 .9609-.6621 1.6699-1.0078 1.957.2344.1992.668.6445.832.9316.2695-.375.7559-.7734 3.832-3.1992-.164-.2754-.416-.8203-.539-1.166l-1.7988 1.3828v-7.5117zm29.7363-.0938v1.6758h-7.5058v-1.6758zm0-1.0312h-7.5058v-1.8105h7.5058zm0 3.75v1.5352l-.3047.2636h-7.2011v-1.7988zm-11.2324 1.7988v1.2012h9.3457c-2.8477 1.9629-6.2871 3.3984-9.9902 4.3535.2695.2871.6621.8262.8261 1.1719 4.1016-1.2422 7.9219-2.9707 11.0508-5.4141v3.3047c0 .3633-.123.4688-.5215.5039-.375.0176-1.7461.0176-3.1699-.0351.1992.3808.416.9902.4863 1.3652 1.8223 0 2.9883-.0176 3.6387-.252.668-.2109.8848-.6621.8848-1.5644v-4.418c1.0957-1.0312 2.0859-2.1562 2.9472-3.3867l-1.166-.6035c-.5215.7851-1.1367 1.5293-1.7812 2.2207v-6.9961h-5.0098c.293-.47461.5801-1.01953.8496-1.53516l-1.5469-.24609c-.1464.50977-.4336 1.18359-.7207 1.78125h-3.7265v8.5488zm30.1699-9.88474-1.2246.24024c.8086 3.5801 1.9981 5.8008 4.2129 7.7051.1992-.416.5918-.8672.9375-1.1367-2.0332-1.6524-3.1699-3.5567-3.9258-6.80864zm-8.9121-.29297c-.8965 2.77149-2.4316 5.52541-4.0664 7.31841.252.3046.6445 1.0078.791 1.3417.5215-.6035 1.0254-1.2656 1.5117-2.0156v10.1836h1.3535v-12.498c.6446-1.2657 1.2188-2.60159 1.6875-3.94339zm4.3945.4043c-.7207 2.84761-2.0918 5.28511-3.9785 6.80861.2696.2695.7031.8789.8613 1.1894.4161-.3457.8145-.7382 1.1719-1.1718v1.1484h2.3028c-.375 3.6094-1.459 6.0703-3.9786 7.4707.2872.2344.7559.7383.9375.9961 2.6836-1.6523 3.9258-4.3535 4.377-8.4668h3.2227c-.2168 4.6641-.4864 6.4453-.8672 6.8672-.1817.2226-.3223.2578-.627.2578-.3105 0-1.084-.0176-1.8926-.0879.1992.3457.3575.8672.3809 1.2598.8262.041 1.6348.041 2.1035 0 .5039-.0528.8613-.1817 1.1895-.5918.5566-.6504.8086-2.666 1.0605-8.3496.0176-.1817.0176-.6153.0176-.6153h-8.1387c1.4238-1.705 2.502-3.9257 3.1875-6.42184zm11.6602 1.21875v4.68166c0 2.9062-.1934 6.8262-2.1387 9.5976.3223.1817.8965.668 1.1309.961 2.0742-2.9766 2.3789-7.4356 2.3789-10.5586h13.084v-1.3008h-13.084v-2.25c4.1191-.26953 8.7129-.75586 11.8418-1.52344l-1.1485-1.14258c-2.7714.73243-7.7929 1.27149-12.0644 1.53516zm2.9004 7.37106v7.8516h1.3476v-.9668h7.4707v.9316h1.4239v-7.8164zm1.3476 5.625v-4.3652h7.4707v4.3652zm12.0469-13.3652v1.35352h12.4332v12.33398c0 .4102-.123.5273-.521.5625-.428 0-1.904.0234-3.3458-.0527.2168.3984.4688 1.0664.5568 1.4589 1.781 0 3.041 0 3.762-.2343.703-.2344.955-.7032.955-1.7168v-12.35158h2.214v-1.35352zm3.1465 5.4258h4.7344v4.1543h-4.7344zm-1.3125-1.3008v8.3145h1.3125v-1.5645h6.0707v-6.75zm26.8362-3v5.25h-5.039v-.791-4.459zm-10.746 5.25v1.3008h4.248c-.252 2.5371-1.166 5.0215-4.213 6.9316.363.2403.849.709 1.084 1.043 3.328-2.1738 4.265-5.0625 4.517-7.9746h5.11v7.916h1.388v-7.916h4.014v-1.3008h-4.014v-5.25h3.457v-1.29492h-14.923v1.29492h3.673v4.459l-.017.791zm22.031 2.1152v6.9727h1.318v-1.2129h8.297v1.1777h1.389v-6.9375zm1.318 4.541v-3.2812h8.297v3.2812zm1.565-13.98628c.381.71485.826 1.64649 1.06 2.32031h-6.135v4.33007c0 2.8184-.199 6.375-2.126 8.9356.304.1699.884.6796 1.101.9668 1.904-2.584 2.338-6.2579 2.391-9.2227h11.502v-5.00977h-5.901l.61-.20507c-.235-.67383-.739-1.72266-1.225-2.49024zm-3.709 3.58008h10.136v2.4902h-10.136zm21.638-2.625v1.30078h8.514v-1.30078zm-7.166 12.082.305 1.3653c1.729-.5039 4.107-1.1953 6.357-1.8516l-.164-1.2539-2.572.7148v-4.3066h2.069v-1.2598h-2.069v-4.22458h2.338v-1.26562h-6.029v1.26562h2.373v4.22458h-2.104v1.2598h2.104v4.6816zm6.375-6.832v1.3184h2.426c-.176 4.1718-.68 6.7324-4.336 8.08.27.2344.645.7207.791 1.0196 3.961-1.5059 4.647-4.4239 4.864-9.0996h2.033v7.0839c0 1.4473.304 1.8809 1.582 1.8809h1.564c1.154 0 1.477-.7031 1.606-3.2637-.381-.0937-.938-.3164-1.225-.58-.053 2.2089-.129 2.5605-.486 2.5605-.235 0-1.078 0-1.26 0-.381 0-.451-.0879-.451-.6152v-7.0664h3.152v-1.3184zm12.721-5.36133c1.207.55664 2.684 1.45313 3.422 2.09763l.773-1.16599c-.755-.61523-2.267-1.44726-3.439-1.93359zm-.949 4.93943c1.166.4981 2.607 1.336 3.328 1.9278l.756-1.1075c-.738-.5859-2.215-1.3535-3.352-1.8164zm.609 9.5508 1.137.9492c1.06-1.7285 2.32-4.0605 3.275-6.0351l-.99-.9082c-1.043 2.1035-2.467 4.5586-3.422 5.9941zm5.578.5391c.487-.2227 1.243-.3516 7.975-1.2305.363.6914.65 1.3418.832 1.8633l1.189-.6328c-.544-1.4532-1.91-3.668-3.187-5.3028l-1.084.5391c.545.7266 1.102 1.5644 1.605 2.4023l-5.707.6504c1.114-1.5644 2.25-3.5566 3.188-5.5488h5.109v-1.2832h-4.752v-3.2168h4.014v-1.2832h-4.014v-3.19336h-1.347v3.19336h-3.873v1.2832h3.873v3.2168h-4.664v1.2832h4.031c-.897 2.1035-2.104 4.0957-2.502 4.6523-.451.6915-.791 1.1192-1.149 1.2129.159.3926.393 1.0957.463 1.3946z" fill="#f69" transform="translate(151.10862 50.93325)"/></svg>