<svg fill="none" height="32" viewBox="0 0 119 32" width="119" xmlns="http://www.w3.org/2000/svg" xmlns:xlink="http://www.w3.org/1999/xlink"><clipPath id="a"><path d="m0 0h119v32h-119z"/></clipPath><g clip-path="url(#a)"><rect fill="#f69" height="32" rx="4" width="119"/><path d="m39.0827 12.18733v4.08337h-3.9193v-.61527-3.4681zm-8.35809 4.08337v1.0117h3.30399c-.1959 1.9733-.9069 3.9056-3.27665 5.3913.28255.1868.66081.5514.8431.8112 2.58855-1.6908 3.31775-3.9375 3.51365-6.2025h3.974v6.1569h1.0801v-6.1569h3.1217v-1.0117h-3.1217v-4.08337h2.6888v-1.00716h-11.60746v1.00716h2.85746v3.4681l-.0137.61527zm17.13539 1.6451v5.4232h1.0254v-.9433h6.4531v.916h1.0801v-5.3959zm1.0254 3.532v-2.5521h6.4531v2.5521zm1.2168-10.8783c.2962.55598.6426 1.28059.8249 1.80468h-4.7715v3.36784c0 2.19208-.1549 4.95838-1.6543 6.94988.237.1322.6882.5286.8568.7519 1.4811-2.0097 1.8183-4.8671 1.8593-7.1731h8.946v-3.89652h-4.5892l.474-.1595c-.1823-.52409-.5742-1.33985-.9525-1.93685zm-2.8848 2.7845h7.8842v1.93685h-7.8842zm16.8301-2.04167v1.01172h6.6218v-1.01172zm-5.5735 9.39717.2369 1.0618c1.3444-.3919 3.1947-.9297 4.9447-1.4401l-.1276-.9752-2.0007.5559v-3.3496h1.6088v-.97978h-1.6088v-3.28581h1.8184v-.98438h-4.6895v.98438h1.8458v3.28581h-1.6361v.97978h1.6361v3.6413zm4.9583-5.31383v1.02543h1.8867c-.1367 3.2447-.5286 5.2363-3.3724 6.2845.2096.1823.5013.5605.6152.7929 3.0808-1.1712 3.614-3.4407 3.7826-7.0774h1.5814v5.5097c0 1.1257.237 1.4629 1.2304 1.4629h1.2168c.8978 0 1.1485-.5469 1.2487-2.5384-.2962-.0729-.7291-.2461-.9524-.4512-.041 1.7181-.1003 1.9916-.3783 1.9916-.1823 0-.8385 0-.9798 0-.2962 0-.3509-.0684-.3509-.4785v-5.4961h2.4518v-1.02543zm9.8939-4.16992c.9388.43294 2.0872 1.1302 2.6614 1.63151l.6016-.90691c-.5879-.47851-1.7637-1.12565-2.6751-1.5039zm-.7383 3.84179c.9069.38737 2.028 1.03906 2.5885 1.49936l.5879-.86134c-.5742-.45573-1.7226-1.05273-2.6067-1.41276zm.4739 7.42836.8842.7383c.8248-1.3444 1.8047-3.1582 2.5475-4.694l-.7702-.7064c-.8112 1.6361-1.9186 3.5456-2.6615 4.6621zm4.3386.4193c.3782-.1732.9661-.2734 6.2025-.957.2825.5377.5058 1.0436.6471 1.4492l.9251-.4922c-.4238-1.1302-1.4856-2.8529-2.4791-4.1244l-.8431.4193c.4238.5651.8567 1.2168 1.2487 1.8685l-4.4388.5059c.8658-1.2168 1.75-2.7663 2.4791-4.3158h3.974v-.998h-3.696v-2.50199h3.1218v-.99804h-3.1218v-2.48373h-1.0482v2.48373h-3.0123v.99804h3.0123v2.50199h-3.6276v.998h3.1355c-.6973 1.6361-1.6361 3.1856-1.946 3.6185-.3509.5378-.6152.8704-.8932.9434.123.3053.3053.8522.36 1.0846z" fill="#fff"/></g></svg>