<svg fill="none" height="15" viewBox="0 0 15 15" width="15" xmlns="http://www.w3.org/2000/svg"><path d="m7.5 0c-4.125 0-7.5 3.375-7.5 7.5s3.375 7.5 7.5 7.5 7.5-3.375 7.5-7.5-3.375-7.5-7.5-7.5zm4.7812 5.4375s-5.62495 5.625-5.62495 5.625c-.09375.0937-.375.1875-.5625.1875s-.375-.0938-.5625-.1875c0 0-3.375-3.375-3.375-3.375-.28125-.28125-.28125-.84375 0-1.125s.84375-.28125 1.125 0c0 0 2.8125 2.8125 2.8125 2.8125s5.06245-5.0625 5.06245-5.0625c.2813-.28125.8438-.28125 1.125 0 .375.28125.375.75 0 1.125z" fill="#7ec684"/></svg>