<svg fill="none" height="15" viewBox="0 0 85 15" width="85" xmlns="http://www.w3.org/2000/svg"><path d="m1.48438 4.49763c.66015.58593 1.5 1.41406 1.875 1.95312l.66015-.64844c-.42187-.51562-1.26172-1.30468-1.91015-1.88281zm.91406 10.18747v-.0117c.16797-.2266.5039-.4805 2.49609-1.9375-.09765-.1875-.22656-.5586-.28906-.8086l-1.24609.8828v-5.4531h-2.808599v.875h1.917969v4.5664c0 .6094-.37109 1.0352-.58594 1.2031.16797.1563.41797.4922.51563.6836zm2.6289-10.2031v.90234h4.76172v3.09766h-4.53515v4.7656c0 1.1992.43359 1.4844 1.77734 1.4844h2.75781c1.30864 0 1.62114-.5391 1.75394-2.5547-.2657-.0625-.6485-.2265-.875-.3984-.0625 1.7656-.1797 2.0898-.92581 2.0898-.46875 0-2.29297 0-2.65235 0-.76562 0-.91015-.1094-.91015-.6094v-3.91011h3.60937v.64844h.90234v-5.51563zm13.54686-.62891c.4102.63282.8281 1.48438.9961 2.01954l.875-.35157c-.1797-.53515-.6328-1.35156-1.0547-1.97265zm-3.1562-.20703c-.6719 1.85157-1.8008 3.67969-2.9883 4.90235.168.21484.4336.73047.5273.94531.4102-.44141.8047-.94531 1.1875-1.5v6.73828h.9024v-8.20703c.4687-.82031.8984-1.72266 1.2343-2.61328zm.3476 9.98434v.8516h7.7891v-.8516h-3.3945v-3.1484h2.8554v-.85156h-2.8554v-2.79297h3.2148v-.85547h-7.3086v.85547h3.1914v2.79297h-2.7851v.85156h2.7851v3.1484zm16.6563-6.2109v1.11719h-5.0039v-1.11719zm0-.6875h-5.0039v-1.20703h5.0039zm0 2.5v1.0234l-.2031.1758h-4.8008v-1.1992zm-7.4883 1.1992v.8008h6.2305c-1.8985 1.3086-4.1914 2.2656-6.6602 2.9023.1797.1915.4414.5508.5508.7813 2.7344-.8281 5.2812-1.9805 7.3672-3.6094v2.2031c0 .2422-.0821.3125-.3477.336-.25.0117-1.164.0117-2.1133-.0235.1329.254.2774.6602.3243.9102 1.2148 0 1.9921-.0117 2.4257-.168.4453-.1406.5899-.4414.5899-1.0429v-2.9453c.7304-.68755 1.3906-1.43755 1.9648-2.25786l-.7773-.40235c-.3477.52344-.7578 1.01954-1.1875 1.48047v-4.66406h-3.3399c.1953-.31641.3868-.67969.5664-1.02344l-1.0312-.16406c-.0977.33984-.2891.78906-.4805 1.1875h-2.4844v5.6992zm20.1133-6.58982-.8164.16015c.539 2.38672 1.332 3.86719 2.8086 5.13672.1328-.27734.3945-.57812.625-.75781-1.3555-1.10156-2.1133-2.3711-2.6172-4.53906zm-5.9414-.19532c-.5977 1.84766-1.6211 3.6836-2.711 4.87891.168.20312.4297.67187.5274.89453.3476-.40234.6836-.84375 1.0078-1.34375v6.78905h.9023v-8.33202c.4297-.84375.8125-1.73437 1.125-2.6289zm2.9297.26953c-.4805 1.89844-1.3946 3.52344-2.6524 4.53907.1797.17968.4688.58593.5742.79297.2774-.23047.543-.49219.7813-.78125v.76562h1.5351c-.25 2.4063-.9726 4.0469-2.6523 4.9805.1914.1562.5039.4922.625.664 1.7891-1.1015 2.6172-2.9023 2.918-5.6445h2.1484c-.1445 3.1094-.3242 4.2969-.5781 4.5781-.1211.1485-.2149.1719-.418.1719-.207 0-.7226-.0117-1.2617-.0586.1328.2305.2383.5781.2539.8399.5508.0273 1.0898.0273 1.4023 0 .336-.0352.5743-.1211.793-.3946.3711-.4336.5391-1.7773.707-5.56639.0118-.12109.0118-.41015.0118-.41015h-5.4258c.9492-1.13672 1.6679-2.61719 2.125-4.28125zm10.8828 7.50391v.8125h4.5859v-.8125zm.9726-5.4375c-.0859 1.19141-.2383 2.80859-.3945 3.76953h.2383l4.6211.01172c-.2305 2.71095-.4922 3.77735-.8047 4.08985-.1211.1172-.2383.1445-.457.1289-.2149 0-.754 0-1.3321-.0586.1445.2305.2305.5781.2539.8281.5742.0391 1.1289.0391 1.4375.0118.3633-.0235.5899-.1055.8164-.3711.4336-.4336.711-1.6914.9844-5.01176.0117-.13281.0234-.39844.0234-.39844h-1.4882c.1953-1.49219.3867-3.30078.4804-4.55078l-.6328-.07813-.1445.05469h-4.1758v.82422h4.0195c-.0976 1.0625-.2539 2.53516-.3984 3.75h-2.4961c.1094-.89062.2305-2.02344.2891-2.94141zm-5.2812-1.75v.82813h1.4648c-.3359 1.87109-.875 3.59765-1.7265 4.80468.1406.25389.3476.78519.4062 1.02349.2266-.3165.4453-.6563.6367-1.03521v4.42971h.7813v-.9961h2.207v-5.3047h-2.1953c.3125-.91406.5625-1.90625.7539-2.92187h1.7891v-.82813zm1.5625 4.56641h1.414v3.68359h-1.414z" fill="#61666d" transform="translate(25.449219 -1.73005)"/></svg>