<svg fill="none" height="13.500031" viewBox="0 0 13 13.50003052" width="13" xmlns="http://www.w3.org/2000/svg"><path d="m4.70711 4.70711c-.39053.39052-1.02369.39052-1.41422 0l-3-3c-.39052-.39053-.39052-1.023692 0-1.414217.39053-.390524 1.02369-.390524 1.41422 0l3 2.999997c.39052.39053.39052 1.02369 0 1.41422zm7.99999-4.414217c.3905.390524.3905 1.023687 0 1.414217l-10.99999 10.99999c-.39053.3905-1.023693.3905-1.414217 0s-.390524-1.0237 0-1.4142l11.000007-11.000007c.3905-.390524 1.0237-.390524 1.4142 0zm-1.4142 12.914207c.3905.3906 1.0237.3906 1.4142 0 .3905-.3905.3905-1.0236 0-1.4142l-2.99999-2.99998c-.39053-.39052-1.02369-.39052-1.41422 0-.39052.39053-.39052 1.02369 0 1.41418z" fill="#9499a0" fill-rule="evenodd"/></svg>