<svg fill="none" height="33" viewBox="0 0 310 33" width="310" xmlns="http://www.w3.org/2000/svg"><rect fill="#fff" height="33" rx="4" width="310"/><rect fill="none" height="32" rx="3.5" stroke="#e3e5e7" width="309" x=".5" y=".5"/><path d="m0 4c0-2.20914 1.79086-4 4-4h62v33h-62c-2.20914 0-4-1.7909-4-4z" fill="#f6f7f8"/><path d="m4 0c-2.20914 0-4 1.79086-4 4v25c0 2.2091 1.79086 4 4 4h62v-33zm0 1h61v31h-61q-1.24263 0-2.12132-.8787-.87868-.8787-.87868-2.1213v-25q0-1.24264.87868-2.12132.87868-.87868 2.12132-.87868z" fill="#e3e5e7" fill-rule="evenodd"/><path d="m19.82552 15.73942v1.30338h-5.83789v-1.30338zm0-.80209h-5.83789v-1.4082h5.83789zm0 2.91667v1.194l-.23698.2051h-5.60091v-1.3991zm-8.73633 1.3991v.9342h7.26888c-2.21484 1.5267-4.88997 2.6433-7.770179 3.3861.209635.2233.514969.6426.642579.9115 3.1901-.9662 6.16146-2.3106 8.59505-4.211v2.5703c0 .2826-.0957.3646-.4056.392-.29167.0136-1.35807.0136-2.46549-.0274.15494.2962.32356.7702.37825 1.0619 1.41732 0 2.32422-.0137 2.83012-.196.5195-.1641.6881-.515.6881-1.2168v-3.4362c.8522-.8021 1.6224-1.6771 2.2923-2.63411l-.9069-.4694c-.4056.61068-.8841 1.18941-1.3854 1.72721v-5.4414h-3.89647c.22786-.36914.45117-.79297.6608-1.19401l-1.20312-.19141c-.11393.39649-.33724.92058-.56055 1.38542h-2.89844v6.6491zm23.46551-7.68816-.9525.18685c.6289 2.7845 1.554 4.51172 3.2767 5.99281.155-.3235.4603-.6745.7292-.88409-1.5814-1.28516-2.4655-2.76628-3.0534-5.29557zm-6.9317-.22787c-.6972 2.1556-1.8912 4.29753-3.1627 5.69203.1959.237.5013.7839.6152 1.0437.4056-.4695.7975-.9844 1.1758-1.56776v7.92056h1.0527v-9.72069c.5013-.98437.948-2.02344 1.3125-3.06706zm3.418.31446c-.5605 2.21484-1.6269 4.11067-3.0944 5.29557.2096.2096.5469.6836.6699.9251.3236-.2689.6335-.5742.9115-.91143v.89323h1.791c-.2917 2.8073-1.1348 4.7214-3.0944 5.8105.2233.1823.5879.5743.7292.7748 2.0872-1.2852 3.0534-3.3861 3.4043-6.5853h2.5065c-.1686 3.6276-.3783 5.013-.6745 5.3411-.1413.1732-.2506.2006-.4876.2006-.2416 0-.8431-.0137-1.472-.0684.1549.2689.278.6745.2962.9798.6426.0319 1.2715.0319 1.6361 0 .3919-.041.6699-.1413.9251-.4603.4329-.5058.6289-2.0735.8249-6.4941.0136-.1413.0136-.47852.0136-.47852h-6.33c1.1074-1.32617 1.9459-3.05338 2.4791-4.99479zm12.6966 8.75457v.9479h5.3503v-.9479zm1.1348-6.34377c-.1003 1.38998-.278 3.27667-.4603 4.39777h.278l5.3913.0137c-.2689 3.1628-.5742 4.4069-.9388 4.7715-.1413.1367-.278.1686-.5332.1504-.2507 0-.8796 0-1.5541-.0684.1687.2689.2689.6745.2963.9662.6699.0455 1.317.0455 1.677.0136.4239-.0273.6882-.123.9525-.4329.5059-.5059.8294-1.9733 1.1485-5.847.0136-.155.0273-.4649.0273-.4649h-1.7363c.2278-1.74085.4511-3.85088.5605-5.30921l-.7383-.09115-.1686.06381h-4.8717v.96158h4.6894c-.1139 1.23959-.2962 2.95769-.4648 4.37497h-2.9121c.1276-1.03903.2689-2.36064.3372-3.43161zm-6.1615-2.04166v.96614h1.709c-.3919 2.18295-1.0208 4.19729-2.0143 5.60549.1641.2962.4056.916.474 1.194.2643-.3691.5195-.7656.7428-1.2077v5.168h.9115v-1.1621h2.5748v-6.18883h-2.5612c.3646-1.06641.6563-2.22396.8796-3.40886h2.0872v-.96614zm1.823 5.32743h1.6497v4.2976h-1.6497z" fill="#18191c"/></svg>