<svg fill="none" height="33" viewBox="0 0 310 33" width="310" xmlns="http://www.w3.org/2000/svg"><rect fill="#fff" height="33" rx="4" width="310"/><rect fill="none" height="32" rx="3.5" stroke="#e3e5e7" width="309" x=".5" y=".5"/><path d="m0 4c0-2.20914 1.79086-4 4-4h62v33h-62c-2.20914 0-4-1.7909-4-4z" fill="#f6f7f8"/><path d="m4 0c-2.20914 0-4 1.79086-4 4v25c0 2.2091 1.79086 4 4 4h62v-33zm0 1h61v31h-61q-1.24263 0-2.12132-.8787-.87868-.8787-.87868-2.1213v-25q0-1.24264.87868-2.12132.87868-.87868 2.12132-.87868z" fill="#e3e5e7" fill-rule="evenodd"/><path d="m19.82552 15.73942v1.30338h-5.83789v-1.30338zm0-.80209h-5.83789v-1.4082h5.83789zm0 2.91667v1.194l-.23698.2051h-5.60091v-1.3991zm-8.73633 1.3991v.9342h7.26888c-2.21484 1.5267-4.88997 2.6433-7.770179 3.3861.209635.2233.514969.6426.642579.9115 3.1901-.9662 6.16146-2.3106 8.59505-4.211v2.5703c0 .2826-.0957.3646-.4056.392-.29167.0136-1.35807.0136-2.46549-.0274.15494.2962.32356.7702.37825 1.0619 1.41732 0 2.32422-.0137 2.83012-.196.5195-.1641.6881-.515.6881-1.2168v-3.4362c.8522-.8021 1.6224-1.6771 2.2923-2.63411l-.9069-.4694c-.4056.61068-.8841 1.18941-1.3854 1.72721v-5.4414h-3.89647c.22786-.36914.45117-.79297.6608-1.19401l-1.20312-.19141c-.11393.39649-.33724.92058-.56055 1.38542h-2.89844v6.6491zm23.46551-7.68816-.9525.18685c.6289 2.7845 1.554 4.51172 3.2767 5.99281.155-.3235.4603-.6745.7292-.88409-1.5814-1.28516-2.4655-2.76628-3.0534-5.29557zm-6.9317-.22787c-.6972 2.1556-1.8912 4.29753-3.1627 5.69203.1959.237.5013.7839.6152 1.0437.4056-.4695.7975-.9844 1.1758-1.56776v7.92056h1.0527v-9.72069c.5013-.98437.948-2.02344 1.3125-3.06706zm3.418.31446c-.5605 2.21484-1.6269 4.11067-3.0944 5.29557.2096.2096.5469.6836.6699.9251.3236-.2689.6335-.5742.9115-.91143v.89323h1.791c-.2917 2.8073-1.1348 4.7214-3.0944 5.8105.2233.1823.5879.5743.7292.7748 2.0872-1.2852 3.0534-3.3861 3.4043-6.5853h2.5065c-.1686 3.6276-.3783 5.013-.6745 5.3411-.1413.1732-.2506.2006-.4876.2006-.2416 0-.8431-.0137-1.472-.0684.1549.2689.278.6745.2962.9798.6426.0319 1.2715.0319 1.6361 0 .3919-.041.6699-.1413.9251-.4603.4329-.5058.6289-2.0735.8249-6.4941.0136-.1413.0136-.47852.0136-.47852h-6.33c1.1074-1.32617 1.9459-3.05338 2.4791-4.99479zm12.6966 8.75457v.9479h5.3503v-.9479zm1.1348-6.34377c-.1003 1.38998-.278 3.27667-.4603 4.39777h.278l5.3913.0137c-.2689 3.1628-.5742 4.4069-.9388 4.7715-.1413.1367-.278.1686-.5332.1504-.2507 0-.8796 0-1.5541-.0684.1687.2689.2689.6745.2963.9662.6699.0455 1.317.0455 1.677.0136.4239-.0273.6882-.123.9525-.4329.5059-.5059.8294-1.9733 1.1485-5.847.0136-.155.0273-.4649.0273-.4649h-1.7363c.2278-1.74085.4511-3.85088.5605-5.30921l-.7383-.09115-.1686.06381h-4.8717v.96158h4.6894c-.1139 1.23959-.2962 2.95769-.4648 4.37497h-2.9121c.1276-1.03903.2689-2.36064.3372-3.43161zm-6.1615-2.04166v.96614h1.709c-.3919 2.18295-1.0208 4.19729-2.0143 5.60549.1641.2962.4056.916.474 1.194.2643-.3691.5195-.7656.7428-1.2077v5.168h.9115v-1.1621h2.5748v-6.18883h-2.5612c.3646-1.06641.6563-2.22396.8796-3.40886h2.0872v-.96614zm1.823 5.32743h1.6497v4.2976h-1.6497z" fill="#18191c"/><path d="m76.49479 12.23486c.72917.66081 1.6543 1.64518 2.08724 2.25586l.7155-.7793c-.4375-.61979-1.38542-1.49023-2.12826-2.1237zm-.906899 3.57747v1.01172h2.096349v5.22725c0 .6198-.41927 1.0481-.66992 1.2168.18229.2142.46029.6562.56055.9114.19596-.3008.56055-.597 2.92578-2.4381-.11393-.2097-.28255-.6517-.35091-.9616l-1.45378 1.1575v-6.12497zm6.325519 4.37497h4.39779v1.2761h-4.39779zm0-.7382v-1.071h4.39779v1.071zm1.68164-8.17127v1.09831h-3.24935v.81119h3.24935v.98438h-2.89844v.76562h2.89844v.93881h-3.66862v.81119h8.51307v-.81119h-3.80994v-.93881h2.95314v-.76562h-2.95314v-.98438h3.37694v-.81119h-3.37694v-1.09831zm-2.66146 6.28447v6.795h.97982v-2.1283h4.39779v.9525c0 .164-.0684.2142-.2507.2324-.1959.0137-.8704.0137-1.58589-.0182.14127.2552.26888.6471.30989.9114.9935 0 1.6361 0 2.0143-.1686.4102-.1504.5196-.4329.5196-.9434v-5.6328zm18.34311-.60609v5.06319h.8249v-5.06319zm1.7773-.50586v6.74935c0 .1595-.0592.2051-.2096.2188-.1823 0-.7428 0-1.39-.0137.1413.2506.2552.6289.2826.8659.8248 0 1.3854-.0137 1.7226-.1504.3509-.155.4466-.4056.4466-.9206v-6.74935zm-11.0605 2.18755c.1094-.114.515-.2006.9661-.2006h1.1029v1.9551c-.9388.2233-1.8047.4238-2.4746.5514l.237 1.0026 2.2376-.5787v3.0534h.9251v-3.295l1.1621-.3099-.082-.8932-1.0801.2552v-1.7409h1.1211v-.9616h-1.1211v-2.12821h-.9251v2.12821h-1.2168c.3646-.98433.7155-2.14644.9935-3.41337h2.2969v-.94791h-2.1009c.1139-.54232.1959-1.08464.2688-1.60873l-.9843-.17773c-.0547.58333-.1231 1.19857-.2233 1.78646h-1.4402v.94791h1.2579c-.2507 1.22592-.515 2.17839-.6426 2.54297-.196.6289-.3646 1.0801-.6016 1.1484.114.237.2643.6836.3236.8842zm8.2305-7.37374c-.9252 1.57682-2.6615 2.99869-4.3523 3.82812.2507.20964.5287.5332.6836.78386.3783-.19597.7565-.41927 1.1211-.65625v.58789h5.1817v-.87045c.3509.21875.7246.43295 1.1028.63347.1276-.28711.4239-.63347.6745-.8431-1.472-.63347-2.8027-1.44011-3.8646-2.64323l.3099-.4694zm-2.142 3.67317c.7839-.60612 1.5267-1.3125 2.142-2.06901.7155.82943 1.4856 1.4948 2.3378 2.06901zm1.5131 2.59307v1.1986h-1.9187v-1.1986zm-2.7891-.84307v7.61527h.8704v-2.9486h1.9187v1.8913c0 .1321-.0274.1595-.1413.1732-.1413 0-.5013 0-.9388-.0137.1276.2506.2415.6289.2689.8659.6015 0 1.0345 0 1.3307-.1504.2916-.155.36-.4193.36-.875v-6.55797zm.8704 2.85747h1.9187v1.0117h-1.9187zm11.4525-6.91801c.9251.64258 1.6361 1.42643 2.2513 2.29687-.9069 3.99214-2.6569 6.83134-5.8105 8.45834.2825.196.7701.6289.9661.8385 2.8438-1.6543 4.6348-4.2291 5.7012-7.89775 1.5403 2.83005 2.5338 6.06115 5.7376 7.85675.0593-.3372.3372-.8978.5195-1.1894-4.6621-2.7891-4.2428-8.05277-8.7226-11.2611zm19.6966 3.11263v1.30338h-5.8379v-1.30338zm0-.80209h-5.8379v-1.4082h5.8379zm0 2.91667v1.194l-.237.2051h-5.6009v-1.3991zm-8.7363 1.3991v.9342h7.2689c-2.2149 1.5267-4.89 2.6433-7.7702 3.3861.2096.2233.515.6426.6426.9115 3.1901-.9662 6.1614-2.3106 8.595-4.211v2.5703c0 .2826-.0957.3646-.4056.392-.2916.0136-1.3581.0136-2.4655-.0274.155.2962.3236.7702.3783 1.0619 1.4173 0 2.3242-.0137 2.8301-.196.5195-.1641.6881-.515.6881-1.2168v-3.4362c.8522-.8021 1.6224-1.6771 2.2923-2.63411l-.9069-.4694c-.4056.61068-.8841 1.18941-1.3854 1.72721v-5.4414h-3.8965c.2279-.36914.4512-.79297.6608-1.19401l-1.2031-.19141c-.1139.39649-.3372.92058-.5605 1.38542h-2.8985v6.6491zm23.4655-7.68816-.9525.18685c.6289 2.7845 1.554 4.51172 3.2767 5.99281.155-.3235.4603-.6745.7292-.88409-1.5814-1.28516-2.4655-2.76628-3.0534-5.29557zm-6.9317-.22787c-.6972 2.1556-1.8912 4.29753-3.1627 5.69203.1959.237.5013.7839.6152 1.0437.4056-.4695.7975-.9844 1.1758-1.56776v7.92056h1.0527v-9.72069c.5013-.98437.948-2.02344 1.3125-3.06706zm3.418.31446c-.5605 2.21484-1.6269 4.11067-3.0944 5.29557.2096.2096.5469.6836.6699.9251.3236-.2689.6335-.5742.9115-.91143v.89323h1.791c-.2917 2.8073-1.1348 4.7214-3.0944 5.8105.2233.1823.5879.5743.7292.7748 2.0872-1.2852 3.0534-3.3861 3.4043-6.5853h2.5065c-.1686 3.6276-.3783 5.013-.6745 5.3411-.1413.1732-.2506.2006-.4876.2006-.2416 0-.8431-.0137-1.472-.0684.1549.2689.278.6745.2962.9798.6426.0319 1.2715.0319 1.6361 0 .3919-.041.6699-.1413.9251-.4603.4329-.5058.6289-2.0735.8249-6.4941.0136-.1413.0136-.47852.0136-.47852h-6.33c1.1074-1.32617 1.9459-3.05338 2.4791-4.99479zm12.6966 8.75457v.9479h5.3503v-.9479zm1.1348-6.34377c-.1003 1.38998-.278 3.27667-.4603 4.39777h.278l5.3913.0137c-.2689 3.1628-.5742 4.4069-.9388 4.7715-.1413.1367-.278.1686-.5332.1504-.2507 0-.8796 0-1.5541-.0684.1687.2689.2689.6745.2963.9662.6699.0455 1.317.0455 1.677.0136.4239-.0273.6882-.123.9525-.4329.5059-.5059.8294-1.9733 1.1485-5.847.0136-.155.0273-.4649.0273-.4649h-1.7363c.2278-1.74085.4511-3.85088.5605-5.30921l-.7383-.09115-.1686.06381h-4.8717v.96158h4.6894c-.1139 1.23959-.2962 2.95769-.4648 4.37497h-2.9121c.1276-1.03903.2689-2.36064.3372-3.43161zm-6.1615-2.04166v.96614h1.709c-.3919 2.18295-1.0208 4.19729-2.0143 5.60549.1641.2962.4056.916.474 1.194.2643-.3691.5195-.7656.7428-1.2077v5.168h.9115v-1.1621h2.5748v-6.18883h-2.5612c.3646-1.06641.6563-2.22396.8796-3.40886h2.0872v-.96614zm1.823 5.32743h1.6497v4.2976h-1.6497z" fill="#c9ccd0"/></svg>