<svg fill="none" height="17" viewBox="0 0 36 17" width="36" xmlns="http://www.w3.org/2000/svg"><path d="m1.73828 14.4468c.46875-.1992 1.14063-.2343 7.67969-.7656.24219.3828.44531.7383.58983 1.0625l.8633-.4844c-.5508-1.0859-1.71485-2.7265-2.8086-3.9453l-.80469.3946c.55469.6289 1.12891 1.3945 1.63281 2.1328l-5.95312.4453c.90234-1.0234 1.82422-2.3086 2.61719-3.65236h5.85551v-.90234h-4.94536v-2.34766h4.05856v-.90234h-4.05856v-1.90234h-.94531v1.90234h-3.96094v.90234h3.96094v2.34766h-4.886718v.90234h3.804688c-.76562 1.39456-1.78906 2.72656-2.10938 3.09766-.36328.4414-.63671.7266-.90234.7891.1211.2578.26563.7265.3125.9257zm18.76952-7.2773c.6211.44141 1.3203 1.08984 1.6445 1.55469l.6485-.50391c-.336-.46484-1.0586-1.08594-1.6836-1.48828zm-1.2148-.51172v1.8086l-.0118.42578h-2.8085v.83984h2.7382c-.2031 1.4961-.8867 3.2188-3.0742 4.5742.2305.1563.5195.3867.6719.5821 1.8008-1.1211 2.6406-2.5079 3.0273-3.879.6094 1.75 1.5703 3.0938 3.0118 3.8282.1211-.2305.3945-.5547.5976-.7227-1.668-.7383-2.6992-2.3515-3.2265-4.3828h3.0859v-.83984h-3.1719v-.42578-1.8086zm.3008-3.03125v1.04297h-3.1211v-1.04297h-.8868v1.04297h-2.8437v.8125h2.8437v1.00391h.8868v-1.00391h3.1211v.94141h.8906v-.94141h2.8203v-.8125h-2.8203v-1.04297zm-3.6954 3.10547c-.2539.29297-.5625.59766-.9257.89063-.3243-.37891-.7422-.7461-1.2579-1.08594l-.5898.48828c.5039.33984.8906.69531 1.1875 1.07422-.5625.3789-1.1992.73437-1.8242 1 .1679.15625.4219.41797.5429.59765.586-.26171 1.1758-.58593 1.7266-.94921.1914.35156.3242.72265.4102 1.09765-.5899.83592-1.7422 1.74612-2.7032 2.16012.1914.168.4219.4727.543.6914.7656-.4257 1.6406-1.1289 2.2891-1.8437l.0117.4844c0 1.2383-.0938 2.1015-.3828 2.4531-.0938.1211-.2031.1797-.3711.1914-.2656.0391-.7188.0391-1.2617 0 .1562.2305.2656.5547.2773.8047.4922.0273.9375.0273 1.332-.0469.2657-.0351.4805-.1562.6368-.3359.4804-.5664.6132-1.6328.6132-3.0196 0-1.0781-.1093-2.14058-.7109-3.12496.457-.35546.8633-.73437 1.1875-1.11328zm18.3008-.88281c-.289 1.8125-.793 3.39453-1.4414 4.71871-.6094-1.36324-1.0195-2.96871-1.2812-4.71871zm-4.1289-.86719v.86719h.6016c.3359 2.15625.8281 4.08203 1.582 5.63671-.7187 1.1758-1.5703 2.082-2.5078 2.6836.2031.1719.457.4805.5898.6992.8868-.625 1.7032-1.4453 2.3868-2.4883.6015.9922 1.3437 1.8008 2.2578 2.4024.1406-.2344.4179-.5625.6211-.7227-.9688-.5898-1.75-1.4453-2.3633-2.5234.9258-1.6797 1.5976-3.81251 1.9101-6.43361l-.5546-.14453-.1563.02344zm-5.6172 7.3125.2031.8828 3.6133-.6367v2.3047h.8789v-2.4649l1.0664-.207-.0468-.7851-1.0196.1718v-6.5781h.875v-.8125h-5.4492v.8125h.8047v7.1328zm1.7891-7.3125h2.0273v1.75h-2.0273zm0 2.53125h2.0273v1.71875h-2.0273zm0 2.51175h2.0273v1.6289l-2.0273.3242z" fill="#f69"/></svg>