<svg fill="none" height="15" viewBox="0 0 190 15" width="190" xmlns="http://www.w3.org/2000/svg" xmlns:xlink="http://www.w3.org/1999/xlink"><clipPath id="a"><path d="m0 0h15v15h-15z"/></clipPath><g fill="#c9ccd0"><g clip-path="url(#a)"><path d="m6.796875 11.48953c0 .388335.314795.703125.703125.703125.388335 0 .703125-.31479.703125-.703125 0-.38833-.31479-.703125-.703125-.703125-.38833 0-.703125.314795-.703125.703125z"/><path d="m7.5 14.0625c-3.61875 0-6.5625-2.9438-6.5625-6.5625 0-3.61875 2.94375-6.5625 6.5625-6.5625 3.6187 0 6.5625 2.94375 6.5625 6.5625 0 3.6187-2.9438 6.5625-6.5625 6.5625zm0-12.183296c-3.09938 0-5.620796 2.521416-5.620796 5.620796 0 3.09891 2.521416 5.6208 5.620796 5.6208 3.09891 0 5.6208-2.52188 5.6208-5.6208 0-3.09938-2.52189-5.620796-5.6208-5.620796z"/><path d="m7.5 9.8685738c-.25876 0-.46875-.21-.46875-.46873v-.79266c0-.76689.58592-1.35281 1.10342-1.86984.37921-.37969.77157-.77156.77157-1.08422 0-.78141-.63094-1.417031-1.40624-1.417031-.78842 0-1.40625.608441-1.40625 1.385161 0 .25874-.209985.46873-.46875.46873s-.46875-.21-.46875-.46875c0-1.28061 1.05138-2.32264 2.34375-2.32264s2.34375 1.05609 2.34375 2.35453c0 .70172-.53203 1.23327-1.04625 1.7475-.40781.40687-.82874.82781-.82874 1.20608v.79265c0 .25877-.21.46922-.46876.46922z"/></g><path d="m4.69141 3.59528c-.16797.6211-.38672 1.26563-.63672 1.88672h-3.300784v.86719h2.906254c-.76954 1.58984-1.82422 3.07031-3.207035 4.03121.144531.211.371094.6055.46875.8516.503905-.3711.972655-.7891 1.390625-1.23828v4.82028h.90234v-5.90622c.5625-.79297 1.05469-1.66406 1.46485-2.55859h6.58591v-.86719h-6.21482c.21484-.54687.40625-1.10547.57422-1.65625zm2.48437 3.39844v2.39844h-2.70312v.83984h2.70312v3.5h-3.17969v.8438h7.25781v-.8438h-3.17968v-3.5h2.72658v-.83984h-2.72658v-2.39844zm13.33202.17578c.6211.44141 1.3203 1.08984 1.6445 1.55469l.6485-.50391c-.336-.46484-1.0586-1.08594-1.6836-1.48828zm-1.2148-.51172v1.8086l-.0118.42578h-2.8085v.83984h2.7382c-.2031 1.4961-.8867 3.2188-3.0742 4.5742.2305.1563.5195.3867.6719.5821 1.8008-1.1211 2.6406-2.5079 3.0273-3.879.6094 1.75 1.5703 3.0938 3.0118 3.8282.1211-.2305.3945-.5547.5976-.7227-1.668-.7383-2.6992-2.3515-3.2265-4.3828h3.0859v-.83984h-3.1719v-.42578-1.8086zm.3008-3.03125v1.04297h-3.1211v-1.04297h-.8868v1.04297h-2.8437v.8125h2.8437v1.00391h.8868v-1.00391h3.1211v.94141h.8906v-.94141h2.8203v-.8125h-2.8203v-1.04297zm-3.6954 3.10547c-.2539.29297-.5625.59766-.9257.89063-.3243-.37891-.7422-.7461-1.2579-1.08594l-.5898.48828c.5039.33984.8906.69531 1.1875 1.07422-.5625.3789-1.1992.73437-1.8242 1 .1679.15625.4219.41797.5429.59765.586-.26171 1.1758-.58593 1.7266-.94921.1914.35156.3242.72265.4102 1.09765-.5899.83592-1.7422 1.74612-2.7032 2.16012.1914.168.4219.4727.543.6914.7656-.4257 1.6406-1.1289 2.2891-1.8437l.0117.4844c0 1.2383-.0938 2.1015-.3828 2.4531-.0938.1211-.2031.1797-.3711.1914-.2656.0391-.7188.0391-1.2617 0 .1562.2305.2656.5547.2773.8047.4922.0273.9375.0273 1.332-.0469.2657-.0351.4805-.1562.6368-.3359.4804-.5664.6132-1.6328.6132-3.0196 0-1.0781-.1093-2.14058-.7109-3.12496.457-.35546.8633-.73437 1.1875-1.11328zm18.3008-.88281c-.289 1.8125-.793 3.39453-1.4414 4.71871-.6094-1.36324-1.0195-2.96871-1.2812-4.71871zm-4.1289-.86719v.86719h.6016c.3359 2.15625.8281 4.08203 1.582 5.63671-.7187 1.1758-1.5703 2.082-2.5078 2.6836.2031.1719.457.4805.5898.6992.8868-.625 1.7032-1.4453 2.3868-2.4883.6015.9922 1.3437 1.8008 2.2578 2.4024.1406-.2344.4179-.5625.6211-.7227-.9688-.5898-1.75-1.4453-2.3633-2.5234.9258-1.6797 1.5976-3.81251 1.9101-6.43361l-.5546-.14453-.1563.02344zm-5.6172 7.3125.2031.8828 3.6133-.6367v2.3047h.8789v-2.4649l1.0664-.207-.0468-.7851-1.0196.1718v-6.5781h.875v-.8125h-5.4492v.8125h.8047v7.1328zm1.7891-7.3125h2.0273v1.75h-2.0273zm0 2.53125h2.0273v1.71875h-2.0273zm0 2.51175h2.0273v1.6289l-2.0273.3242zm17.4492-6.03909c.3359.53906.6836 1.26953.8516 1.74609h-2.3985c.2735-.59766.5274-1.23437.7305-1.85547l-.8516-.21484c-.539 1.77344-1.4531 3.55078-2.5078 4.72656.168.13281.4297.39844.586.56641l-1.1993.38281v-2.51172h1.3438v-.84375h-1.3438v-2.37891h-.875v2.37891h-1.5507v.84375h1.5507v2.78516l-1.6445.50779.2266.8985 1.4179-.461v3.2031c0 .1758-.0742.2227-.2187.2227-.1406.0156-.6094.0156-1.125-.0117.1172.2656.2383.6484.2617.8789.7695 0 1.2383-.0234 1.5352-.1797.3007-.1445.4218-.3984.4218-.9102v-3.5039l1.3672-.45699-.1172-.79688.0352.03516c.3359-.39453.6719-.85547.9844-1.39063v7.20704h.8633v-.8711h5.4101v-.8398h-2.5312v-1.6602h2.1015v-.8008h-2.1015v-1.64451h2.1132v-.80469h-2.1132v-1.67187h2.2929v-.82813h-2.5429l.6953-.29687c-.1563-.48047-.5274-1.19922-.8867-1.75zm-1.6562 5.05078h2.0273v1.64451h-2.0273zm0-.80469v-1.67187h2.0273v1.67187zm0 3.25h2.0273v1.6602h-2.0273zm12.8867-2.00781v4.92971h.8047v-4.92971zm-2.125-.01172v1.28123c0 1.1406-.1563 2.5196-1.6289 3.5508.2031.1328.5039.4102.6328.5781 1.6211-1.1484 1.8125-2.75 1.8125-4.1054v-1.30473zm4.2617 0v3.94923c0 .7422.0586.9336.2422 1.1016.1523.1445.418.2031.6562.2031h.5899c.2031 0 .4453-.0469.5742-.1328.1719-.0938.2656-.2383.3242-.4688.0625-.2187.0977-.875.1211-1.4219-.2148-.0742-.4805-.1992-.6367-.3476-.0117.5937-.0235 1.043-.0469 1.2539-.0234.1992-.0586.2851-.1211.3359-.0586.0352-.1562.0469-.2617.0469-.0977 0-.2539 0-.3359 0-.086 0-.1563-.0117-.1914-.0469-.0625-.0625-.0743-.1875-.0743-.4375v-4.03513zm-8.0391-5.07031c.7188.4375 1.6055 1.08593 2.0391 1.55468l.5391-.70703c-.4297-.46093-1.3321-1.08984-2.0508-1.48828zm-.5429 3.36718c.7695.36329 1.7187.94532 2.1875 1.37891l.5039-.76953c-.4805-.42188-1.4414-.96875-2.211-1.28906zm.3007 6.39456.7579.6054c.707-1.125 1.5468-2.6757 2.1836-3.9921l-.6485-.6094c-.6953 1.4023-1.6445 3.043-2.293 3.9961zm5.9297-10.35549c.1914.41406.3828.93359.5274 1.37109h-3.4219v.8125h2.3672c-.5039.67188-1.1875 1.55469-1.418 1.77734-.2265.21485-.5742.30079-.8047.35157.0742.21093.1953.66797.2422.89062.3477-.13672.8985-.18359 5.8438-.53125.2382.33594.4453.64453.5898.90625l.7305-.49609c-.4453-.73438-1.3672-1.875-2.125-2.71094l-.6719.42578c.2891.33203.6133.73047.9141 1.11719l-3.7696.22266c.4688-.5586 1.0313-1.32813 1.4883-1.95313h4.1406v-.8125h-3.1796c-.1329-.46094-.3868-1.07812-.6368-1.57422zm10.4414.97656v3.35156l-1.2968.52735.3359.78125.9609-.39844v3.83201c0 1.3555.3946 1.6797 1.7735 1.6797h2.9648c1.25 0 1.5469-.5273 1.6797-2.2695-.2383-.0352-.5976-.1914-.8047-.3555-.082 1.4649-.2031 1.8086-.9101 1.8086-.4805 0-2.4961 0-2.8946 0-.8008 0-.9453-.1367-.9453-.8398v-4.21489l1.6055-.66797v4.04296h.8555v-4.39452l1.6796-.71484c0 1.89844-.0273 3.19536-.0859 3.47656-.0586.2695-.168.3125-.3594.3125-.1211 0-.5156 0-.8047-.0195.1094.2031.1797.5508.2149.789.3359 0 .8164 0 1.1289-.0937.3594-.086.5898-.3008.6601-.7891.086-.457.1094-2.21092.1094-4.46482l.0469-.17579-.6367-.25-.168.14063-.1797.17578-1.6054.69531v-3.1289h-.8555v3.48828l-1.6055.66406v-2.98828zm-4.7539 7.13673.3594.957c1.0547-.5 2.4258-1.1484 3.707-1.7617l-.2031-.793-1.3672.5625v-3.3945h1.4141v-.85156h-1.4141v-2.8711h-.8515v2.8711h-1.5352v.85156h1.5352v3.7578c-.625.25-1.1875.4922-1.6446.6719zm16.8125-5.5547v7.2617h-1.4648v.8633h7.8008v-.8633h-2.7735v-4.8867h2.5938v-.875h-2.5938v-4.16016h-.9101v9.92186h-1.7656v-7.2617zm-4.8008 5.5859.336.918c1.1289-.4726 2.6055-1.1172 3.9726-1.7383l-.1562-.8203-1.5352.6211v-3.4414h1.5704v-.85156h-1.5704v-2.85938h-.8398v2.85938h-1.6445v.85156h1.6445v3.7773c-.6719.2735-1.2852.5079-1.7774.6836zm12.8399-2.19527v4.38667h8.5195v.7032h.9727v-5.08987h-.9727v3.48437h-3.3008v-4.25h3.793v-4.26172h-.9726v3.38672h-2.8204v-4.48828h-.9804v4.48828h-2.75v-3.375h-.9375v4.25h3.6875v4.25h-3.2422v-3.48437zm11.4258-5.26563v.90234h8.2891v8.22266c0 .2734-.082.3516-.348.375-.285 0-1.269.0156-2.23-.0352.144.2657.312.711.371.9727 1.187 0 2.027 0 2.508-.1562.468-.1563.636-.4688.636-1.1446v-8.23436h1.477v-.90234zm2.0976 3.61719h3.1565v2.76951h-3.1565zm-.875-.86719v5.543h.875v-1.043h4.0465v-4.5zm18.6135-.0625c.621.44141 1.32 1.08984 1.644 1.55469l.649-.50391c-.336-.46484-1.059-1.08594-1.684-1.48828zm-1.215-.51172v1.8086l-.012.42578h-2.808v.83984h2.738c-.203 1.4961-.887 3.2188-3.074 4.5742.23.1563.519.3867.672.5821 1.8-1.1211 2.64-2.5079 3.027-3.879.609 1.75 1.57 3.0938 3.012 3.8282.121-.2305.394-.5547.597-.7227-1.668-.7383-2.699-2.3515-3.226-4.3828h3.086v-.83984h-3.172v-.42578-1.8086zm.301-3.03125v1.04297h-3.121v-1.04297h-.887v1.04297h-2.844v.8125h2.844v1.00391h.887v-1.00391h3.121v.94141h.89v-.94141h2.821v-.8125h-2.821v-1.04297zm-3.696 3.10547c-.253.29297-.562.59766-.925.89063-.325-.37891-.743-.7461-1.258-1.08594l-.59.48828c.504.33984.891.69531 1.187 1.07422-.562.3789-1.199.73437-1.824 1 .168.15625.422.41797.543.59765.586-.26171 1.176-.58593 1.727-.94921.191.35156.324.72265.41 1.09765-.59.83592-1.742 1.74612-2.703 2.16012.191.168.422.4727.543.6914.765-.4257 1.64-1.1289 2.289-1.8437l.012.4844c0 1.2383-.094 2.1015-.383 2.4531-.094.1211-.203.1797-.371.1914-.266.0391-.719.0391-1.262 0 .156.2305.266.5547.277.8047.492.0273.938.0273 1.332-.0469.266-.0351.481-.1562.637-.3359.481-.5664.613-1.6328.613-3.0196 0-1.0781-.109-2.14058-.711-3.12496.457-.35546.864-.73437 1.188-1.11328zm18.301-.88281c-.289 1.8125-.793 3.39453-1.441 4.71871-.61-1.36324-1.02-2.96871-1.281-4.71871zm-4.129-.86719v.86719h.602c.336 2.15625.828 4.08203 1.582 5.63671-.719 1.1758-1.57 2.082-2.508 2.6836.203.1719.457.4805.59.6992.887-.625 1.703-1.4453 2.387-2.4883.601.9922 1.343 1.8008 2.257 2.4024.141-.2344.418-.5625.622-.7227-.969-.5898-1.75-1.4453-2.364-2.5234.926-1.6797 1.598-3.81251 1.91-6.43361l-.554-.14453-.156.02344zm-5.617 7.3125.203.8828 3.614-.6367v2.3047h.878v-2.4649l1.067-.207-.047-.7851-1.02.1718v-6.5781h.875v-.8125h-5.449v.8125h.805v7.1328zm1.789-7.3125h2.028v1.75h-2.028zm0 2.53125h2.028v1.71875h-2.028zm0 2.51175h2.028v1.6289l-2.028.3242zm18.18-2.6055v1.11719h-5.004v-1.11719zm0-.6875h-5.004v-1.20703h5.004zm0 2.5v1.0234l-.203.1758h-4.801v-1.1992zm-7.488 1.1992v.8008h6.23c-1.898 1.3086-4.191 2.2656-6.66 2.9023.18.1915.441.5508.551.7813 2.734-.8281 5.281-1.9805 7.367-3.6094v2.2031c0 .2422-.082.3125-.348.336-.25.0117-1.164.0117-2.113-.0235.133.254.277.6602.324.9102 1.215 0 1.992-.0117 2.426-.168.445-.1406.59-.4414.59-1.0429v-2.9453c.73-.68755 1.39-1.43755 1.965-2.25786l-.778-.40235c-.347.52344-.758 1.01954-1.187 1.48047v-4.66406h-3.34c.195-.31641.387-.67969.566-1.02344l-1.031-.16406c-.098.33984-.289.78906-.48 1.1875h-2.485v5.6992zm20.113-6.58982-.817.16015c.54 2.38672 1.332 3.86719 2.809 5.13672.133-.27734.395-.57812.625-.75781-1.355-1.10156-2.113-2.3711-2.617-4.53906zm-5.942-.19532c-.597 1.84766-1.621 3.6836-2.71 4.87891.167.20312.429.67187.527.89453.348-.40234.683-.84375 1.008-1.34375v6.78905h.902v-8.33202c.43-.84375.813-1.73437 1.125-2.6289zm2.93.26953c-.48 1.89844-1.394 3.52344-2.652 4.53907.179.17968.469.58593.574.79297.277-.23047.543-.49219.781-.78125v.76562h1.535c-.25 2.4063-.972 4.0469-2.652 4.9805.191.1562.504.4922.625.664 1.789-1.1015 2.617-2.9023 2.918-5.6445h2.148c-.144 3.1094-.324 4.2969-.578 4.5781-.121.1485-.214.1719-.418.1719-.207 0-.722-.0117-1.261-.0586.133.2305.238.5781.254.8399.55.0273 1.089.0273 1.402 0 .336-.0352.574-.1211.793-.3946.371-.4336.539-1.7773.707-5.56639.012-.12109.012-.41015.012-.41015h-5.426c.949-1.13672 1.668-2.61719 2.125-4.28125zm10.883 7.50391v.8125h4.586v-.8125zm.973-5.4375c-.086 1.19141-.239 2.80859-.395 3.76953h.238l4.621.01172c-.23 2.71095-.492 3.77735-.804 4.08985-.121.1172-.239.1445-.457.1289-.215 0-.754 0-1.332-.0586.144.2305.23.5781.254.8281.574.0391 1.129.0391 1.437.0118.363-.0235.59-.1055.817-.3711.433-.4336.71-1.6914.984-5.01176.012-.13281.023-.39844.023-.39844h-1.488c.195-1.49219.387-3.30078.481-4.55078l-.633-.07813-.145.05469h-4.176v.82422h4.02c-.098 1.0625-.254 2.53516-.398 3.75h-2.497c.11-.89062.231-2.02344.289-2.94141zm-5.282-1.75v.82813h1.465c-.336 1.87109-.875 3.59765-1.726 4.80468.14.25389.347.78519.406 1.02349.226-.3165.445-.6563.637-1.03521v4.42971h.781v-.9961h2.207v-5.3047h-2.195c.312-.91406.562-1.90625.754-2.92187h1.789v-.82813zm1.563 4.56641h1.414v3.68359h-1.414z" transform="translate(20.546875 -1.888361)"/></g></svg>